**ABCDEFGHIJKLMNOPQRSTUVWXYZabcdefghijklmnopqrstuvwxyz**************************
**PARASOLID !"#$%&'()*+,-./:;<=>?@[\]^_`{|}~0123456789**************************
**PART1;
MC=AMD64;
MC_MODEL=Intel64 Family 6 Model 142 Stepping 9, GenuineIntel;
MC_ID=unknown;
OS=Windows_NT;
OS_RELEASE=unknown;
FRU=Parasolid Version 27.0, build 207,  1-23-2015;
APPL=SOLIDWORKS 2015-2015313;
SITE=;
USER=unknown;
FORMAT=text;
GUISE=transmit;
KEY=cap;
FILE=cap.x_t;
DATE=Fri Jun 07 12:54:12 2019;
**PART2;
SCH=SCH_2700207_26105;
USFLD_SIZE=0;
**PART3;
**END_OF_HEADER*****************************************************************
T51 : TRANSMIT FILE created by modeller version 270020723 SCH_2700207_26105_1300
6196 0 12 30 CCCCCCCCCCCCCDI5 owner1040 0 CCCCCCCCCA13 boundary_mesh1006 0 A16 i
ndex_map_offset0 0 1 dA9 index_map82 0 A17 node_id_index_map82 0 A20 schema_embe
dding_map82 0 A5 child12 0 A14 lowest_node_id0 0 1 dZ1 1848 2 3 0 0 0 0 1e3 1e-8
 0 4 0 1 0 1 1 5 6 7 8 9 10 11 0 0 0 0 0 0 0 81 255 2 2 1599 12 1 0 0 0 0 13 0 7
0 11 CI9 list_type0 0 1 uI10 notransmit0 0 1 lCCCDCCDI12 finger_index0 0 1 dI12
 finger_block1012 0 CZ3 0 4 T1 0 0 3 20 1 14 14 13 255 5 541 0 1 0 15 0 0 16 0 5
1 255 6 458 0 17 18 0 0 +0 0 0 0 1 0 .006 0 0 1 30 255 7 1423 0 1 19 0 20 --.006
34707736462882 0 0 0 0 1 29 255 8 1267 0 11 21 0 -.00692285472670902 0 -.0104192
685212483 19 8 CCCCCCCA5 owner12 0 Z9 5 0 1 16 0 22 V0 16 255 10 1257 0 ?23 0 24
 25 0 0 1 18 255 11 1265 0 26 0 27 8 ?1 17 255 26 0 28 29 30 11 31 32 0 33 -18 2
7 1262 0 29 11 34 21 ?1 17 29 0 28 35 26 27 36 37 0 38 -18 34 1259 0 35 27 39 40
 ?1 29 21 1264 0 27 40 8 -.00819310330041711 0 -.00996408843340395 29 40 1261 0
 34 41 21 .00819310330041711 0 -.00996408843340395 29 41 571 0 42 43 40 .0169048
097709622 .002 -.00708571428571429 18 42 173 0 44 45 46 41 ?1 29 43 570 0 46 47
 41 -.0169048097709622 .002 -.00708571428571429 18 46 176 0 48 42 49 43 ?1 29 47
 567 0 50 51 43 -.0160160997291874 .002 -.00891428571428571 18 50 114 0 52 53 45
 47 ?1 29 51 566 0 45 54 47 .0160160997291874 .002 -.00891428571428572 18 45 117
 0 55 50 42 51 ?1 29 54 560 0 56 57 51 -.0169048097709622 .012 -.007085714285714
28 18 56 62 0 58 59 53 54 ?1 29 57 559 0 53 60 54 .0169048097709622 .012 -.00708
571428571429 18 53 63 0 61 56 50 57 ?1 29 60 556 0 39 62 57 .0160160997291874 .0
12 -.00891428571428572 18 39 60 0 63 34 59 60 ?1 29 62 555 0 59 64 60 -.01601609
97291874 .012 -.00891428571428572 18 59 61 0 65 39 56 62 ?1 29 64 288 0 66 67 62
 .00634707736462884 .002 -.0104192685212483 18 66 275 0 68 69 70 64 ?1 29 67 289
 0 70 71 64 .00634707736462884 .002 -.0154192685212483 18 70 276 0 72 66 73 67 ?
1 29 71 290 0 69 74 67 -.00634707736462882 .002 -.0104192685212483 18 69 274 0 7
5 76 66 71 ?1 29 74 291 0 76 77 71 -.00634707736462883 .002 -.0154192685212483 1
8 76 273 0 78 79 69 74 ?1 29 77 253 0 80 81 74 -.00634707736462882 0 -.010419268
5212483 18 80 241 0 82 83 79 77 1e-8 1 29 81 254 0 79 84 77 .00634707736462884 0
 -.0104192685212483 18 79 242 0 85 80 76 81 1e-8 1 29 84 255 0 83 86 81 -.006347
07736462883 0 -.0154192685212483 18 83 240 0 87 49 80 84 ?1 29 86 256 0 49 88 84
 .00634707736462884 0 -.0154192685212483 18 49 239 0 89 46 83 86 ?1 29 88 1394 0
 90 91 86 .00692285472670903 0 -.0104192685212483 18 90 1331 0 92 93 0 88 ?1 29
 91 1396 0 73 94 88 -.00819310330041711 -.0098 -.00996408843340395 18 73 1327 0
 95 70 96 91 ?1 29 94 1397 0 96 97 91 .00819310330041711 -.0098 -.00996408843340
395 18 96 1326 0 98 73 99 94 ?1 29 97 1398 0 99 100 94 .00692285472670903 -.0098
 -.0104192685212483 18 99 1325 0 101 96 93 97 ?1 29 100 1399 0 93 0 97 -.0069228
5472670902 -.0098 -.0104192685212483 18 93 1332 0 102 99 90 100 ?1 17 102 0 103
 33 104 93 101 105 0 106 -15 255 103 430 0 107 108 0 17 33 0 103 31 102 11 109 1
10 0 36 +17 104 0 103 102 23 99 111 112 0 113 -17 101 0 114 98 106 99 102 105 0
 104 +16 105 1280 0 ?101 115 116 117 0 0 1 17 106 0 114 101 95 93 118 116 0 109
 +15 114 1337 0 106 119 120 17 95 0 114 106 98 73 121 122 0 123 +17 118 0 124 12
5 109 73 106 116 0 0 -16 116 1277 0 ?106 105 126 127 0 0 1 17 109 0 124 118 36 9
3 33 110 0 0 -15 124 1346 0 36 128 0 17 36 0 124 109 125 11 29 37 0 0 +16 110 13
13 0 ?33 129 112 130 0 0 1 16 129 996 0 ?131 132 110 133 0 0 1 16 112 1317 0 ?11
1 110 134 135 0 0 1 30 130 1377 0 110 135 136 0 +-.00692285472670902 -.0098 -.01
04192685212483 0 1 0 30 135 1378 0 112 137 130 0 +.00692285472670903 -.0098 -.01
04192685212483 0 1 0 133 255 136 1375 0 32 130 138 0 +139 -.00692285472670902 0
 -.0104192685212483 -.00634707736462883 0 -.0104192685212483 -.00057577736208020
2 -3469446951953615e-33 16 32 1298 0 ?31 140 37 136 0 0 1 31 255 138 1033 0 132
 136 133 0 +0 0 0 0 -1 0 0 0 -1 .0225 30 139 1275 0 1 141 25 142 +-.006347077364
62882 0 -.0104192685212483 1 0 -1307258744081422e-31 31 141 582 0 143 144 139 0
 +0 0 0 0 1 0 0 0 1 .006 133 25 1408 0 10 139 145 0 +139 .00634707736462884 0 -.
0104192685212483 .00692285472670902 0 -.0104192685212483 .01269415472925766 .013
26993209133784 141 255 142 25 146 146 139 141 146 136 142 142 139 133 145 1409 0
 147 25 148 0 +148 .00634707736462884 .002 -.0104192685212483 .00634707736462884
 0 -.0104192685212483 .002 0 16 147 371 0 ?107 149 150 145 0 0 1 30 148 1410 0 1
 145 151 152 -.00634707736462884 0 -.0104192685212483 0 1 0 133 151 1411 0 153 1
48 154 0 +154 .00634707736462884 0 -.0154192685212483 .00634707736462884 0 -.010
4192685212483 -.0154192685212483 -.0104192685212483 141 152 145 152 152 148 16 1
53 233 0 ?155 156 157 151 0 0 1 30 154 1412 0 1 151 158 159 +.00634707736462884
 0 0 0 0 1 133 158 1420 0 160 154 161 0 +161 -.00634707736462882 0 -.01041926852
12483 -.00634707736462882 .002 -.0104192685212483 0 .002 141 159 151 159 159 154
 16 160 411 0 ?75 150 143 158 0 0 1 30 161 1421 0 1 158 19 162 +-.00634707736462
882 0 -.0104192685212483 0 1 0 133 19 1422 0 163 161 7 0 +7 -.00634707736462882
 0 -.0104192685212483 -.00634707736462882 0 -.0154192685212483 -.010419268521248
3 -.0154192685212483 141 162 158 162 162 161 16 163 235 0 ?87 157 164 19 0 0 1 1
7 87 0 165 78 82 83 30 163 0 166 +16 157 234 0 ?89 153 163 167 0 0 1 16 164 267
 0 ?168 163 169 170 0 0 1 17 168 0 171 172 173 70 174 164 0 0 +16 169 268 0 ?173
 164 175 176 0 0 1 30 170 285 0 164 167 176 0 +897381019010443e-33 .002 -.015419
2685212483 1 0 0 30 167 246 0 157 177 170 0 +897381019010443e-33 0 -.01541926852
12483 1 0 0 30 176 284 0 169 170 178 0 --.00634707736462882 .002 0 0 0 1 30 178
 283 0 175 176 179 0 -897381019010443e-33 .002 -.0104192685212483 1 0 0 16 175 2
69 0 ?180 169 181 178 0 0 1 30 179 282 0 181 178 182 0 +.00634707736462884 .002
 0 0 0 1 16 181 270 0 ?172 175 183 179 0 0 1 30 182 295 0 184 179 185 0 +-.01601
60997291874 .002 -.00891428571428571 1 0 -277276751118604e-30 16 184 110 0 ?186
 187 188 182 0 0 1 30 185 329 0 189 182 190 0 +.0169048097709622 .002 -.00708571
428571429 -1 0 131349957753706e-30 16 189 169 0 ?191 192 193 185 0 0 1 30 190 37
9 0 149 185 194 0 +.00634707736462883 0 -.0154192685212483 0 1 0 16 149 369 0 ?7
2 183 147 190 0 0 1 30 194 400 0 150 190 195 0 +-.00634707736462883 0 -.01541926
85212483 0 1 0 16 150 390 0 ?78 147 160 194 0 0 1 31 195 554 0 196 194 197 0 -0
 .012 0 0 1 0 0 0 1 .0183297555993307 16 196 55 0 ?198 24 199 195 0 0 1 31 197 5
58 0 187 195 200 0 -0 .012 0 0 1 0 0 0 1 .0183297555993307 16 187 57 0 ?201 199
 184 197 0 0 1 31 200 565 0 192 197 202 0 +0 .002 0 0 1 0 0 0 1 .018329755599330
7 16 192 139 0 ?52 203 189 200 0 0 1 31 202 569 0 156 200 144 0 +0 .002 0 0 1 0
 0 0 1 .0183297555993307 16 156 198 0 ?44 204 153 202 0 0 1 31 144 576 0 183 202
 141 0 -0 .002 0 0 1 0 0 0 1 .006 16 183 314 0 ?205 181 149 144 0 0 1 17 205 0 2
06 205 205 0 207 183 0 0 +15 206 312 0 205 208 209 17 207 0 210 207 207 0 205 18
3 0 0 -15 210 454 0 207 17 0 14 255 17 451 211 1e-8 108 212 213 5 6 -0 0 214 108
 22 81 1 211 1827 215 17 216 0 0 217 218 14 108 428 217 1e-8 219 17 103 5 18 -0
 0 17 219 22 14 212 1251 220 ?17 15 221 5 222 -223 223 224 15 22 15 213 453 0 22
5 17 210 14 214 1004 226 ?119 224 227 5 228 +0 0 119 17 22 13 22 3 0 0 0 0 0 0 9
 15 14 15 1452 229 ?212 0 230 5 231 +0 0 212 0 22 81 1 229 1831 215 15 232 0 226
 233 234 15 230 52 0 201 15 235 50 255 231 64 0 15 236 237 0 +-94425648294133e-3
2 .012 0 0 1 0 0 0 1 50 236 35 0 224 228 231 0 +897381019010443e-33 .002 0 0 1 0
 0 0 1 50 237 118 0 238 231 239 0 +-.0160160997291874 .002 -.00891428571428571 2
77276751118604e-30 0 1 1 0 -277276751118604e-30 14 238 107 233 1e-8 224 240 241
 5 237 -0 0 240 224 22 51 239 147 0 240 237 242 0 +0 .002 0 0 1 0 .0183297555993
307 0 0 1 14 240 136 243 1e-8 238 244 245 5 239 -0 0 244 238 22 50 242 177 0 244
 239 246 0 +.0169048097709622 .002 -.00708571428571429 -131349957753706e-30 0 -1
 -1 0 131349957753706e-30 14 244 166 247 1e-8 240 248 249 5 242 -0 0 248 240 22
 51 246 206 0 248 242 222 0 +0 .002 0 0 1 0 .0183297555993307 0 0 1 14 248 195 2
50 1e-8 244 223 251 5 246 -0 0 223 244 22 50 222 243 0 223 246 252 0 +8973810190
10443e-33 0 0 0 1 0 0 0 1 14 223 227 253 1e-8 248 254 28 5 222 -212 212 254 248
 22 50 252 279 0 254 222 255 0 +897381019010443e-33 .002 0 0 1 0 0 0 1 14 254 26
3 256 1e-8 223 208 171 5 252 +0 0 208 223 22 50 255 319 0 208 252 257 0 +8973810
19010443e-33 .002 0 0 1 0 0 0 1 14 208 310 258 1e-8 254 259 206 5 255 +0 0 259 2
54 22 50 257 376 0 259 255 260 0 +.00634707736462884 0 -.0104192685212483 1 0 -1
33226762955019e-29 -133226762955019e-29 0 -1 14 259 365 261 1e-8 208 262 263 5 2
57 -0 0 262 208 22 50 260 397 0 262 257 264 0 +.00634707736462884 0 -.0154192685
212483 0 0 -1 -1 0 0 14 262 386 265 1e-8 259 219 266 5 260 -0 0 219 259 22 50 26
4 418 0 219 260 18 0 +-.00634707736462883 0 -.0154192685212483 -1 0 177635683940
025e-29 177635683940025e-29 0 1 14 219 407 267 1e-8 262 108 165 5 264 -0 0 108 2
62 22 50 18 439 0 108 264 6 0 +-.00634707736462882 0 -.0104192685212483 13993502
3425079e-29 0 1 1 0 -139935023425079e-29 81 1 267 1841 215 219 268 0 265 269 270
 15 165 409 0 82 219 0 17 82 0 165 87 271 80 75 160 0 30 -17 271 0 165 82 78 69
 173 169 0 180 -17 75 0 103 272 31 69 82 160 0 271 +17 30 0 28 26 273 80 87 163
 0 31 -15 28 1269 0 26 223 274 17 273 0 28 30 275 83 89 157 0 0 -17 31 0 103 75
 33 80 26 32 0 0 +17 275 0 28 273 85 49 155 153 0 0 -17 89 0 266 72 166 49 273 1
57 0 276 +15 266 388 0 166 262 0 17 72 0 266 174 89 70 276 149 0 277 +17 166 0 2
66 89 174 83 78 150 0 273 -17 276 0 263 155 277 49 72 149 0 275 -15 263 367 0 27
6 259 0 17 155 0 263 68 276 79 275 153 0 0 +17 277 0 263 276 68 70 172 181 0 168
 -17 68 0 263 277 155 66 107 147 0 272 -17 172 0 171 180 168 66 277 181 0 0 +15
 171 265 0 173 254 278 17 180 0 171 173 172 69 272 175 0 0 +17 173 0 171 168 180
 76 271 169 0 0 +17 272 0 103 107 75 66 180 175 0 172 -17 107 0 103 23 272 79 68
 147 0 155 +17 23 0 103 104 107 90 85 10 0 111 +17 85 0 28 275 92 79 23 10 0 107
 -17 111 0 279 280 113 90 104 112 0 0 +15 279 1355 0 280 281 0 17 280 0 279 282
 111 34 92 140 0 283 +17 113 0 279 111 282 99 98 115 0 0 -17 282 0 279 113 280 9
6 283 134 0 121 -17 98 0 114 95 101 96 113 115 0 282 +16 115 1285 0 ?98 122 105
 284 0 0 1 16 122 1288 0 ?95 285 115 286 0 0 1 31 284 1385 0 115 117 286 0 +.006
92285472670903 -.0098 -.0084192685212483 0 -1 0 0 0 1 .002 30 117 1386 0 105 127
 284 0 +-.00634707736462882 -.0098 -.0104192685212483 1 0 3012837235749415e-30 3
1 286 1384 0 122 284 287 0 +0 -.0098 0 0 -1 0 0 0 -1 .0129 31 287 1383 0 37 286
 288 0 +-.00692285472670902 0 -.0084192685212483 0 -1 0 0 0 1 .002 16 37 1294 0
 ?36 32 289 287 0 0 1 31 288 1382 0 140 287 290 0 +.00692285472670903 0 -.008419
2685212483 0 -1 0 0 0 1 .002 16 140 1314 0 ?280 126 32 288 0 0 1 31 290 1381 0 1
26 288 291 0 +0 0 0 0 -1 0 0 0 -1 .0129 16 126 1318 0 ?38 116 140 290 0 0 1 30 2
91 1380 0 285 290 137 0 +-.00819310330041711 -.0098 -.00996408843340395 0 1 0 16
 285 1297 0 ?125 134 122 291 0 0 1 30 137 1379 0 134 291 135 0 +.008193103300417
11 -.0098 -.00996408843340395 0 1 0 16 134 1321 0 ?283 112 285 137 0 0 1 17 283
 0 292 38 121 34 282 134 0 0 +15 292 1359 0 38 293 0 17 38 0 292 123 283 27 35 1
26 0 125 +17 121 0 292 283 123 96 95 122 0 0 -17 123 0 292 121 38 73 125 285 0 1
18 -17 125 0 124 36 118 27 123 285 0 0 +17 35 0 28 92 29 34 38 126 0 280 -17 92
 0 28 85 35 90 280 140 0 23 -14 293 1356 269 ?294 281 292 5 295 -0 0 294 281 22
 81 1 269 1842 215 293 296 0 267 297 298 14 294 1360 297 ?299 293 300 5 301 +0 0
 299 293 22 14 281 1352 302 ?293 128 279 5 303 -0 0 293 128 22 51 295 1370 0 293
 304 303 0 -0 -.0098 0 0 1 0 .0129 0 0 1 50 304 1372 0 119 301 295 0 +-.00692285
472670902 -.0098 -.0084192685212483 0 1 0 0 0 1 51 303 1369 0 281 295 305 0 -.00
692285472670903 -.0098 -.0084192685212483 0 1 0 .002 0 0 1 51 305 1367 0 128 303
 228 0 --.00692285472670902 -.0098 -.0084192685212483 0 1 0 .002 0 0 1 14 128 13
43 306 ?281 119 124 5 305 -0 0 281 119 22 51 228 1028 0 214 305 236 0 +0 .065639
6103067893 0 0 -1 0 .0225 0 0 -1 81 1 306 1845 215 128 307 0 302 308 309 14 119
 1335 308 ?128 214 114 5 304 -0 0 128 214 22 81 1 308 1846 215 119 310 0 306 311
 312 80 255 1 215 313 314 9000 1 1 1 1 1 1 1 1 0 FFFFTFTFFFFFFF1 81 1 310 1765 3
15 119 0 308 316 307 317 81 1 311 1847 215 224 318 0 308 319 320 82 255 1 312 -1
780875105 14 224 28 311 1e-8 214 238 321 5 236 +0 0 238 212 22 81 1 318 1763 315
 224 0 311 322 316 323 81 1 319 1848 215 299 324 0 311 0 325 82 1 320 -158223548
3 14 299 1545 319 ?0 294 326 5 327 +0 0 0 294 22 81 1 324 1770 315 299 0 319 328
 0 329 82 1 325 -1071972187 80 1 315 0 330 8001 0 0 0 0 3 5 0 0 0 FFFFTFTFFFFFFF
2 81 1 328 1769 315 294 0 297 296 324 331 83 255 3 329 .745098039215686 .7450980
39215686 .745098039215686 81 1 297 1843 215 294 328 0 269 302 332 81 1 296 1768
 315 293 0 269 333 328 334 83 3 331 .745098039215686 .745098039215686 .745098039
215686 81 1 333 1767 315 281 0 302 307 296 335 83 3 334 .745098039215686 .745098
039215686 .745098039215686 81 1 302 1844 215 281 333 0 297 306 336 81 1 307 1766
 315 128 0 306 310 333 337 83 3 335 .745098039215686 .745098039215686 .745098039
215686 83 3 337 .745098039215686 .745098039215686 .745098039215686 82 1 336 -178
4872801 82 1 332 -1797193569 79 255 15 330 SDL/TYSA_COLOUR15 326 1548 0 338 299
 339 51 327 1558 0 299 0 301 0 +0 .002 0 0 1 0 .0199 0 0 1 51 301 1373 0 294 327
 304 0 -0 -.0098 0 0 1 0 .0089 0 0 1 17 338 0 326 338 338 0 340 341 0 0 +15 339
 1549 0 342 299 0 17 342 0 339 342 342 0 343 344 0 0 -17 343 0 345 343 343 0 342
 344 0 0 +16 344 1498 0 ?343 341 0 346 0 0 1 16 341 1495 0 ?338 347 344 348 0 0
 1 31 346 1574 0 344 348 349 0 +0 .012 0 0 1 0 0 0 1 .0199 31 348 1575 0 341 0 3
46 0 +0 .002 0 0 1 0 0 0 1 .0199 31 349 1389 0 289 346 350 0 +0 -.0098 0 0 -1 0
 0 0 -1 .0089 16 289 1322 0 ?351 37 347 349 0 0 1 31 350 1388 0 347 349 127 0 +0
 0 0 0 -1 0 0 0 -1 .0089 16 347 1291 0 ?352 289 341 350 0 0 1 31 127 1387 0 116
 350 117 0 +-.00692285472670902 -.0098 -.0084192685212483 0 -1 0 0 0 1 .002 17 3
52 0 353 352 352 0 354 347 0 0 +15 353 1249 0 352 212 0 17 354 0 355 354 354 0 3
52 347 0 0 -15 355 1364 0 354 294 0 17 351 0 300 351 351 0 356 289 0 0 +15 300 1
363 0 351 294 355 17 356 0 120 356 356 0 351 289 0 0 -15 120 1338 0 356 119 0 15
 345 1449 0 343 15 0 17 340 0 357 340 340 0 338 341 0 0 -15 357 1540 0 340 224 0
 81 1 322 1762 315 238 0 233 358 318 359 81 1 316 1764 315 214 0 226 318 310 360
 83 3 323 .749019607843137 .749019607843137 .749019607843137 81 1 226 1830 215 2
14 316 0 220 229 361 83 3 360 .745098039215686 .745098039215686 .745098039215686
 81 1 220 1829 215 212 362 0 217 226 363 82 1 361 -1542127468 81 1 362 1750 315
 212 0 220 232 216 364 81 1 217 1828 215 108 365 0 211 220 366 82 1 363 -1778843
489 81 1 365 1752 315 108 0 217 216 268 367 82 1 366 -1580203873 81 1 216 1751 3
15 17 0 211 362 365 368 81 1 268 1753 315 219 0 267 365 369 370 83 3 367 .749019
607843137 .749019607843137 .749019607843137 81 1 369 1754 315 262 0 265 268 371
 372 83 3 370 .749019607843137 .749019607843137 .749019607843137 81 1 265 1840 2
15 262 369 0 261 267 373 81 1 371 1755 315 259 0 261 369 374 375 83 3 372 .74901
9607843137 .749019607843137 .749019607843137 81 1 261 1839 215 259 371 0 258 265
 376 81 1 374 1756 315 208 0 258 371 377 378 83 3 375 .749019607843137 .74901960
7843137 .749019607843137 81 1 258 1838 215 208 374 0 256 261 379 81 1 377 1757 3
15 254 0 256 374 380 381 83 3 378 .749019607843137 .749019607843137 .74901960784
3137 81 1 256 1837 215 254 377 0 253 258 382 81 1 380 1758 315 223 0 253 377 383
 384 83 3 381 .749019607843137 .749019607843137 .749019607843137 81 1 253 1836 2
15 223 380 0 250 256 385 81 1 383 1759 315 248 0 250 380 386 387 83 3 384 .74901
9607843137 .749019607843137 .749019607843137 81 1 250 1835 215 248 383 0 247 253
 388 81 1 386 1760 315 244 0 247 383 358 389 83 3 387 .749019607843137 .74901960
7843137 .749019607843137 81 1 247 1834 215 244 386 0 243 250 390 81 1 358 1761 3
15 240 0 243 386 322 391 83 3 389 .749019607843137 .749019607843137 .74901960784
3137 81 1 243 1833 215 240 358 0 233 247 392 83 3 391 .749019607843137 .74901960
7843137 .749019607843137 81 1 233 1832 215 238 322 0 229 243 393 82 1 392 234946
703 82 1 393 246874255 82 1 390 247070863 82 1 388 236650639 82 1 385 -158112137
7 82 1 382 247398543 82 1 379 235733135 82 1 376 -1580597089 82 1 373 247791759
 83 3 368 .749019607843137 .749019607843137 .749019607843137 81 1 232 1749 315 1
5 0 229 0 362 394 83 3 364 .749019607843137 .749019607843137 .749019607843137 83
 3 394 .749019607843137 .749019607843137 .749019607843137 83 3 359 .749019607843
137 .749019607843137 .749019607843137 15 321 1022 0 395 224 357 17 395 0 321 395
 395 0 131 129 0 0 -17 131 0 396 131 131 0 395 129 0 0 +15 396 1008 0 131 214 0
 83 3 317 .745098039215686 .745098039215686 .745098039215686 79 14 314 SWEntUnch
anged82 1 309 -1784086369 82 1 298 -1785134945 15 278 266 0 52 254 0 17 52 0 278
 186 186 50 55 192 0 397 +17 186 0 278 52 52 45 398 184 0 399 +17 55 0 245 63 39
7 45 52 192 0 186 -17 397 0 245 55 65 50 400 188 0 398 +15 245 138 0 63 240 0 17
 65 0 245 397 63 59 198 196 0 400 -17 400 0 241 401 398 59 397 188 0 402 -16 188
 111 0 ?397 184 203 403 0 0 1 17 398 0 241 400 399 50 186 184 0 0 -15 241 109 0
 400 238 0 17 399 0 241 398 401 45 63 203 0 0 -17 401 0 241 399 400 39 402 24 0
 198 -17 63 0 245 65 55 39 399 203 0 401 +16 203 113 0 ?63 188 192 404 0 0 1 30
 404 128 0 203 405 403 0 +.0160160997291874 .002 -.00891428571428572 0 1 0 30 40
5 65 0 199 406 404 0 +-94425648294133e-32 .012 -.00708571428571428 1 0 0 30 403
 132 0 188 404 407 0 --.0160160997291874 .002 -.00891428571428571 0 1 0 30 407 1
87 0 204 403 177 0 +-.0169048097709622 .002 -.00708571428571429 0 1 0 16 204 172
 0 ?58 193 156 407 0 0 1 30 177 191 0 193 407 167 0 -.0169048097709622 .002 -.00
708571428571429 0 1 0 16 193 170 0 ?408 189 204 177 0 0 1 17 408 0 251 48 61 42
 409 193 0 410 +15 251 197 0 58 248 0 17 48 0 251 58 408 46 44 156 0 191 -17 61
 0 251 408 58 53 201 187 0 409 -17 409 0 249 411 410 53 408 193 0 412 -17 410 0
 249 409 413 42 191 189 0 0 -15 249 168 0 409 244 0 17 413 0 249 410 411 46 58 2
04 0 0 -17 191 0 209 44 44 46 410 189 0 413 +15 209 313 0 44 208 0 17 44 0 209 1
91 191 42 48 156 0 408 +17 411 0 249 413 409 56 412 199 0 201 -17 58 0 251 61 48
 56 413 204 0 411 +17 412 0 230 201 201 53 411 199 0 0 +16 199 56 0 ?412 196 187
 405 0 0 1 17 201 0 230 412 412 56 61 187 0 0 +30 406 67 0 24 133 405 0 --944256
48294133e-32 .012 -.00891428571428572 1 0 0 16 24 54 0 ?402 10 196 406 0 0 1 31
 133 1030 0 129 138 406 0 -0 .002 0 0 1 0 0 0 1 .0225 17 402 0 235 198 198 59 40
1 24 0 0 +15 235 51 0 198 15 345 17 198 0 235 402 402 39 65 196 0 0 +17 174 0 26
6 166 72 76 168 164 0 173 -17 78 0 165 271 87 76 166 150 0 174 +15 274 1017 0 41
4 223 0 17 414 0 274 414 414 0 415 132 0 0 +17 415 0 227 415 415 0 414 132 0 0 -
16 132 1000 0 ?414 143 129 138 0 0 1 16 143 455 0 ?416 160 132 141 0 0 1 17 416
 0 221 416 416 0 225 143 0 0 +15 221 495 0 416 212 353 17 225 0 213 225 225 0 41
6 143 0 0 -15 227 1007 0 415 214 396 82 1 270 -1580334945 82 1 234 -1054343003 8
2 1 218 242417807 19 16 542 0 1 0 9 5 S0 141 20 19 20 20 7 74 4 CI16 index_map_o
ffset0 0 1 dCCZ20 14 3 0 0 319 2 324 0 0 0 0 0 0 0 0 0 0 0 0 0 0 0 0 0 80 2 12 4
17 418 8004 0 0 0 0 3 5 0 0 0 FFTFFFFFFFFFFT2 3 83 1 13 78e2 79 16 418 SDL/TYSA_
DENSITY1 0 
