**ABCDEFGHIJKLMNOPQRSTUVWXYZabcdefghijklmnopqrstuvwxyz**************************
**PARASOLID !"#$%&'()*+,-./:;<=>?@[\]^_`{|}~0123456789**************************
**PART1;
MC=AMD64;
MC_MODEL=Intel64 Family 6 Model 142 Stepping 9, GenuineIntel;
MC_ID=unknown;
OS=Windows_NT;
OS_RELEASE=unknown;
FRU=Parasolid Version 27.0, build 207,  1-23-2015;
APPL=SOLIDWORKS 2015-2015313;
SITE=;
USER=unknown;
FORMAT=text;
GUISE=transmit;
KEY=main;
FILE=main.x_t;
DATE=Fri Jun 07 12:52:23 2019;
**PART2;
SCH=SCH_2700207_26105;
USFLD_SIZE=0;
**PART3;
**END_OF_HEADER*****************************************************************
T51 : TRANSMIT FILE created by modeller version 270020723 SCH_2700207_26105_1300
6196 0 12 30 CCCCCCCCCCCCCDI5 owner1040 0 CCCCCCCCCA13 boundary_mesh1006 0 A16 i
ndex_map_offset0 0 1 dA9 index_map82 0 A17 node_id_index_map82 0 A20 schema_embe
dding_map82 0 A5 child12 0 A14 lowest_node_id0 0 1 dZ1 418 2 3 4 0 0 0 1e3 1e-8
 0 5 0 1 0 1 1 6 7 8 0 9 10 0 0 0 0 0 0 0 0 81 255 2 2 340 11 1 0 0 0 0 12 0 70
 11 CI9 list_type0 0 1 uI10 notransmit0 0 1 lCCCDCCDI12 finger_index0 0 1 dI12 f
inger_block1012 0 CZ3 0 4 T1 0 0 3 20 1 13 13 50 255 4 267 0 1 14 0 0 +897381019
010443e-33 .01 0 0 1 0 0 0 1 13 255 6 139 0 1 0 15 0 0 16 0 50 7 119 0 15 17 0 0
 +897381019010443e-33 .0016 0 0 1 0 0 0 1 31 255 8 158 0 18 19 0 0 +0 .0016 0 0
 1 0 0 0 1 .02 19 8 CCCCCCCA5 owner12 0 Z9 5 0 1 16 0 20 V0 16 255 10 32 0 ?21 0
 22 23 0 0 1 17 255 21 0 24 21 21 0 25 10 0 0 +16 22 53 0 ?26 10 27 28 0 0 1 31
 23 149 0 10 29 28 0 -0 0 0 0 1 0 0 0 1 .006 31 29 317 0 30 31 23 0 +0 .1216 0 0
 1 0 0 0 1 .0225 31 28 152 0 22 23 19 0 -0 .1216 0 0 1 0 0 0 1 .02 31 19 155 0 2
7 28 8 0 -0 .0016 0 0 1 0 0 0 1 .006 16 27 75 0 ?32 22 18 19 0 0 1 17 32 0 33 32
 32 0 34 27 0 0 +16 18 95 0 ?35 27 36 8 0 0 1 17 35 0 37 35 35 0 38 18 0 0 +16 3
6 289 0 ?39 18 30 31 0 0 1 17 39 0 40 39 39 0 41 36 0 0 +16 30 282 0 ?42 36 0 29
 0 0 1 31 31 319 0 36 0 29 0 -0 0 0 0 1 0 0 0 1 .0225 17 42 0 43 42 42 0 44 30 0
 0 +15 255 43 298 0 42 45 0 17 44 0 46 44 44 0 42 30 0 0 -15 46 294 0 44 47 0 14
 255 47 290 48 ?0 49 50 6 51 +0 0 0 15 20 81 1 48 413 52 47 53 0 0 54 55 14 49 2
8 54 1e-8 47 45 56 6 57 -0 0 45 0 20 15 50 293 0 41 47 46 51 255 51 312 0 47 0 5
7 0 +0 -.0636396103067893 0 0 1 0 .0225 0 0 1 14 15 112 58 1e-8 59 0 33 6 7 +0 0
 47 59 20 13 20 3 0 0 0 0 0 0 9 49 81 1 58 415 52 15 60 0 54 61 62 14 59 91 61 1
e-8 63 15 64 6 17 -0 0 15 63 20 15 33 114 0 32 15 37 15 37 115 0 35 15 0 81 1 61
 416 52 59 65 0 58 66 67 14 63 70 66 1e-8 45 59 24 6 68 -0 0 59 45 20 15 64 93 0
 38 59 69 51 17 98 0 59 68 7 0 +0 .0016 0 0 1 0 .02 0 0 1 51 68 77 0 63 70 17 0
 +0 0 0 0 1 0 .006 0 0 1 50 70 56 0 45 57 68 0 +-897381019010443e-33 .1216 0 0 1
 0 0 0 1 14 45 49 71 1e-8 49 63 72 6 70 +0 0 63 49 20 50 57 35 0 49 51 70 0 +897
381019010443e-33 0 0 0 1 0 0 0 1 81 1 71 418 52 45 73 0 66 0 74 15 72 51 0 26 45
 43 17 26 0 72 26 26 0 75 22 0 0 +17 75 0 69 75 75 0 26 22 0 0 -15 69 94 0 75 59
 0 80 255 1 52 76 77 9000 1 1 1 1 1 1 1 1 0 FFFFTFTFFFFFFF1 81 1 73 394 78 45 0
 71 79 80 81 81 1 66 417 52 63 79 0 61 71 82 82 255 1 74 245891221 81 1 79 393 7
8 63 0 66 65 73 83 82 1 82 1831927951 80 1 78 0 84 8001 0 0 0 0 3 5 0 0 0 FFFFTF
TFFFFFFF2 81 1 65 392 78 59 0 61 60 79 85 83 255 3 83 .749019607843137 .74901960
7843137 .749019607843137 81 1 60 391 78 15 0 58 0 65 86 83 3 85 .749019607843137
 .749019607843137 .749019607843137 83 3 86 .749019607843137 .749019607843137 .74
9019607843137 79 255 15 84 SDL/TYSA_COLOUR81 1 80 395 78 49 0 54 73 53 87 83 3 8
1 .749019607843137 .749019607843137 .749019607843137 81 1 54 414 52 49 80 0 48 5
8 88 81 1 53 396 78 47 0 48 80 0 89 83 3 87 .749019607843137 .749019607843137 .7
49019607843137 83 3 89 .745098039215686 .745098039215686 .745098039215686 82 1 8
8 246349973 79 14 77 SWEntUnchanged17 38 0 64 38 38 0 35 18 0 0 -15 24 72 0 21 6
3 90 15 90 73 0 34 63 0 17 34 0 90 34 34 0 32 27 0 0 -82 1 67 1832779919 82 1 62
 1833042063 17 41 0 50 41 41 0 39 36 0 0 -15 56 30 0 25 49 40 17 25 0 56 25 25 0
 21 10 0 0 -15 40 308 0 39 49 0 82 1 55 262799509 19 16 140 0 1 0 9 6 S0 50 14 2
66 0 1 91 4 0 +897381019010443e-33 .01 0 0 1 0 0 0 1 50 91 265 0 1 92 14 0 +8973
81019010443e-33 .01 0 0 1 0 0 0 1 50 92 264 0 1 93 91 0 +897381019010443e-33 .01
 0 0 1 0 0 0 1 50 93 263 0 1 94 92 0 +897381019010443e-33 .01 0 0 1 0 0 0 1 50 9
4 262 0 1 95 93 0 +897381019010443e-33 .01 0 0 1 0 0 0 1 50 95 258 0 1 96 94 0 +
897381019010443e-33 .01 0 0 1 0 0 0 1 50 96 257 0 1 97 95 0 +897381019010443e-33
 .01 0 0 1 0 0 0 1 50 97 256 0 1 0 96 0 +897381019010443e-33 .01 0 0 1 0 0 0 1 7
4 4 CI16 index_map_offset0 0 1 dCCZ20 13 3 0 0 71 2 53 0 0 0 0 0 0 0 0 0 0 0 0 0
 0 0 0 0 80 2 11 98 99 8004 0 0 0 0 3 5 0 0 0 FFTFFFFFFFFFFT2 3 83 1 12 78e2 79
 16 99 SDL/TYSA_DENSITY1 0 
