**ABCDEFGHIJKLMNOPQRSTUVWXYZabcdefghijklmnopqrstuvwxyz**************************
**PARASOLID !"#$%&'()*+,-./:;<=>?@[\]^_`{|}~0123456789**************************
**PART1;
MC=AMD64;
MC_MODEL=Intel64 Family 6 Model 142 Stepping 9, GenuineIntel;
MC_ID=unknown;
OS=Windows_NT;
OS_RELEASE=unknown;
FRU=Parasolid Version 27.0, build 207,  1-23-2015;
APPL=SOLIDWORKS 2015-2015313;
SITE=;
USER=unknown;
FORMAT=text;
GUISE=transmit;
KEY=—борка2;
FILE=—борка2.x_t;
DATE=Fri Jun 07 12:55:10 2019;
**PART2;
SCH=SCH_2700207_26105;
USFLD_SIZE=0;
**PART3;
**END_OF_HEADER*****************************************************************
T51 : TRANSMIT FILE created by modeller version 270020723 SCH_2700207_26105_1300
6196 0 10 255 1 5 2 3 0 0 0 0 0 1e3 1e-8 0 0 0 1 0 1 4 81 255 1 2 5 5 1 0 0 0 0
 0 70 11 CI9 list_type0 0 1 uI10 notransmit0 0 1 lCCCDCCDI12 finger_index0 0 1 d
I12 finger_block1012 0 CZ3 0 4 T1 0 0 1 20 1 6 6 11 255 4 3 0 1 7 8 1 9 0 0 0 12
 30 CCCCCCCCCCCCCDI5 owner1040 0 CCCCCCCCCA13 boundary_mesh1006 0 A16 index_map_
offset0 0 1 dA9 index_map82 0 A17 node_id_index_map82 0 A20 schema_embedding_map
82 0 A5 child12 0 A14 lowest_node_id0 0 1 dZ7 449 10 11 12 0 0 0 1e3 1e-8 4 13 0
 1 0 1 1 14 15 16 0 17 18 0 0 0 0 0 0 0 0 100 255 8 4 4 0 0 -.586655961076439 -6
59492906712837e-31 .809836269460365 163539840133552e-30 -1 3703505578545875e-32
 .809836269460365 154167330287238e-30 .586655961076439 80194337456281e-31 .1236
 -1874674736292815e-32 1 3 ?11 9 1 0 1 13 19 1 0 4 0 0 12 13 2025 20 21 0 0 0 0
 1e3 1e-8 9 22 7 1 0 1 1 23 24 25 26 27 28 29 0 0 0 0 0 0 0 100 19 2 9 0 0 1 0 0
 0 1 0 0 0 1 0 0 0 1 0 ?81 1 20 2025 5 13 30 0 0 0 31 70 21 0 4 T13 0 0 4 20 1 3
2 32 13 255 23 541 0 13 0 33 0 0 34 0 51 255 24 458 0 35 36 0 0 +0 0 0 0 1 0 .00
6 0 0 1 30 255 25 1423 0 13 37 0 38 --.00634707736462882 0 0 0 0 1 29 255 26 126
7 0 29 39 0 -.00692285472670902 0 -.0104192685212483 19 8 CCCCCCCA5 owner12 0 Z2
7 5 0 13 34 0 40 V0 16 255 28 1257 0 ?41 0 42 43 0 0 13 18 255 29 1265 0 44 0 45
 26 ?13 17 255 44 0 46 47 48 29 49 50 0 51 -18 45 1262 0 47 29 52 39 ?13 17 47 0
 46 53 44 45 54 55 0 56 -18 52 1259 0 53 45 57 58 ?13 29 39 1264 0 45 58 26 -.00
819310330041711 0 -.00996408843340395 29 58 1261 0 52 59 39 .00819310330041711 0
 -.00996408843340395 29 59 571 0 60 61 58 .0169048097709622 .002 -.0070857142857
1429 18 60 173 0 62 63 64 59 ?13 29 61 570 0 64 65 59 -.0169048097709622 .002 -.
00708571428571429 18 64 176 0 66 60 67 61 ?13 29 65 567 0 68 69 61 -.01601609972
91874 .002 -.00891428571428571 18 68 114 0 70 71 63 65 ?13 29 69 566 0 63 72 65
 .0160160997291874 .002 -.00891428571428572 18 63 117 0 73 68 60 69 ?13 29 72 56
0 0 74 75 69 -.0169048097709622 .012 -.00708571428571428 18 74 62 0 76 77 71 72
 ?13 29 75 559 0 71 78 72 .0169048097709622 .012 -.00708571428571429 18 71 63 0
 79 74 68 75 ?13 29 78 556 0 57 80 75 .0160160997291874 .012 -.00891428571428572
 18 57 60 0 81 52 77 78 ?13 29 80 555 0 77 82 78 -.0160160997291874 .012 -.00891
428571428572 18 77 61 0 83 57 74 80 ?13 29 82 288 0 84 85 80 .00634707736462884
 .002 -.0104192685212483 18 84 275 0 86 87 88 82 ?13 29 85 289 0 88 89 82 .00634
707736462884 .002 -.0154192685212483 18 88 276 0 90 84 91 85 ?13 29 89 290 0 87
 92 85 -.00634707736462882 .002 -.0104192685212483 18 87 274 0 93 94 84 89 ?13 2
9 92 291 0 94 95 89 -.00634707736462883 .002 -.0154192685212483 18 94 273 0 96 9
7 87 92 ?13 29 95 253 0 98 99 92 -.00634707736462882 0 -.0104192685212483 18 98
 241 0 100 101 97 95 1e-8 13 29 99 254 0 97 102 95 .00634707736462884 0 -.010419
2685212483 18 97 242 0 103 98 94 99 1e-8 13 29 102 255 0 101 104 99 -.0063470773
6462883 0 -.0154192685212483 18 101 240 0 105 67 98 102 ?13 29 104 256 0 67 106
 102 .00634707736462884 0 -.0154192685212483 18 67 239 0 107 64 101 104 ?13 29 1
06 1394 0 108 109 104 .00692285472670903 0 -.0104192685212483 18 108 1331 0 110
 111 0 106 ?13 29 109 1396 0 91 112 106 -.00819310330041711 -.0098 -.00996408843
340395 18 91 1327 0 113 88 114 109 ?13 29 112 1397 0 114 115 109 .00819310330041
711 -.0098 -.00996408843340395 18 114 1326 0 116 91 117 112 ?13 29 115 1398 0 11
7 118 112 .00692285472670903 -.0098 -.0104192685212483 18 117 1325 0 119 114 111
 115 ?13 29 118 1399 0 111 0 115 -.00692285472670902 -.0098 -.0104192685212483 1
8 111 1332 0 120 117 108 118 ?13 17 120 0 121 51 122 111 119 123 0 124 -15 255 1
21 430 0 125 126 0 17 51 0 121 49 120 29 127 128 0 54 +17 122 0 121 120 41 117 1
29 130 0 131 -17 119 0 132 116 124 117 120 123 0 122 +16 123 1280 0 ?119 133 134
 135 0 0 13 17 124 0 132 119 113 111 136 134 0 127 +15 132 1337 0 124 137 138 17
 113 0 132 124 116 91 139 140 0 141 +17 136 0 142 143 127 91 124 134 0 0 -16 134
 1277 0 ?124 123 144 145 0 0 13 17 127 0 142 136 54 111 51 128 0 0 -15 142 1346
 0 54 146 0 17 54 0 142 127 143 29 47 55 0 0 +16 128 1313 0 ?51 147 130 148 0 0
 13 16 147 996 0 ?149 150 128 151 0 0 13 16 130 1317 0 ?129 128 152 153 0 0 13 3
0 148 1377 0 128 153 154 0 +-.00692285472670902 -.0098 -.0104192685212483 0 1 0
 30 153 1378 0 130 155 148 0 +.00692285472670903 -.0098 -.0104192685212483 0 1 0
 133 255 154 1375 0 50 148 156 0 +157 -.00692285472670902 0 -.0104192685212483 -
.00634707736462883 0 -.0104192685212483 -.000575777362080202 -3469446951953615e-
33 16 50 1298 0 ?49 158 55 154 0 0 13 31 255 156 1033 0 150 154 151 0 +0 0 0 0 -
1 0 0 0 -1 .0225 30 157 1275 0 13 159 43 160 +-.00634707736462882 0 -.0104192685
212483 1 0 -1307258744081422e-31 31 159 582 0 161 162 157 0 +0 0 0 0 1 0 0 0 1 .
006 133 43 1408 0 28 157 163 0 +157 .00634707736462884 0 -.0104192685212483 .006
92285472670902 0 -.0104192685212483 .01269415472925766 .01326993209133784 141 25
5 160 43 164 164 157 141 164 154 160 160 157 133 163 1409 0 165 43 166 0 +166 .0
0634707736462884 .002 -.0104192685212483 .00634707736462884 0 -.0104192685212483
 .002 0 16 165 371 0 ?125 167 168 163 0 0 13 30 166 1410 0 13 163 169 170 -.0063
4707736462884 0 -.0104192685212483 0 1 0 133 169 1411 0 171 166 172 0 +172 .0063
4707736462884 0 -.0154192685212483 .00634707736462884 0 -.0104192685212483 -.015
4192685212483 -.0104192685212483 141 170 163 170 170 166 16 171 233 0 ?173 174 1
75 169 0 0 13 30 172 1412 0 13 169 176 177 +.00634707736462884 0 0 0 0 1 133 176
 1420 0 178 172 179 0 +179 -.00634707736462882 0 -.0104192685212483 -.0063470773
6462882 .002 -.0104192685212483 0 .002 141 177 169 177 177 172 16 178 411 0 ?93
 168 161 176 0 0 13 30 179 1421 0 13 176 37 180 +-.00634707736462882 0 -.0104192
685212483 0 1 0 133 37 1422 0 181 179 25 0 +25 -.00634707736462882 0 -.010419268
5212483 -.00634707736462882 0 -.0154192685212483 -.0104192685212483 -.0154192685
212483 141 180 176 180 180 179 16 181 235 0 ?105 175 182 37 0 0 13 17 105 0 183
 96 100 101 48 181 0 184 +16 175 234 0 ?107 171 181 185 0 0 13 16 182 267 0 ?186
 181 187 188 0 0 13 17 186 0 189 190 191 88 192 182 0 0 +16 187 268 0 ?191 182 1
93 194 0 0 13 30 188 285 0 182 185 194 0 +897381019010443e-33 .002 -.01541926852
12483 1 0 0 30 185 246 0 175 195 188 0 +897381019010443e-33 0 -.0154192685212483
 1 0 0 30 194 284 0 187 188 196 0 --.00634707736462882 .002 0 0 0 1 30 196 283 0
 193 194 197 0 -897381019010443e-33 .002 -.0104192685212483 1 0 0 16 193 269 0 ?
198 187 199 196 0 0 13 30 197 282 0 199 196 200 0 +.00634707736462884 .002 0 0 0
 1 16 199 270 0 ?190 193 201 197 0 0 13 30 200 295 0 202 197 203 0 +-.0160160997
291874 .002 -.00891428571428571 1 0 -277276751118604e-30 16 202 110 0 ?204 205 2
06 200 0 0 13 30 203 329 0 207 200 208 0 +.0169048097709622 .002 -.0070857142857
1429 -1 0 131349957753706e-30 16 207 169 0 ?209 210 211 203 0 0 13 30 208 379 0
 167 203 212 0 +.00634707736462883 0 -.0154192685212483 0 1 0 16 167 369 0 ?90 2
01 165 208 0 0 13 30 212 400 0 168 208 213 0 +-.00634707736462883 0 -.0154192685
212483 0 1 0 16 168 390 0 ?96 165 178 212 0 0 13 31 213 554 0 214 212 215 0 -0 .
012 0 0 1 0 0 0 1 .0183297555993307 16 214 55 0 ?216 42 217 213 0 0 13 31 215 55
8 0 205 213 218 0 -0 .012 0 0 1 0 0 0 1 .0183297555993307 16 205 57 0 ?219 217 2
02 215 0 0 13 31 218 565 0 210 215 220 0 +0 .002 0 0 1 0 0 0 1 .0183297555993307
 16 210 139 0 ?70 221 207 218 0 0 13 31 220 569 0 174 218 162 0 +0 .002 0 0 1 0
 0 0 1 .0183297555993307 16 174 198 0 ?62 222 171 220 0 0 13 31 162 576 0 201 22
0 159 0 -0 .002 0 0 1 0 0 0 1 .006 16 201 314 0 ?223 199 167 162 0 0 13 17 223 0
 224 223 223 0 225 201 0 0 +15 224 312 0 223 226 227 17 225 0 228 225 225 0 223
 201 0 0 -15 228 454 0 225 35 0 14 255 35 451 229 1e-8 126 230 231 23 24 -0 0 23
2 126 40 81 1 229 2005 233 35 234 0 235 236 237 14 126 428 236 1e-8 238 35 121 2
3 36 -0 0 35 238 40 14 230 1251 235 ?35 33 239 23 240 -241 241 242 33 40 15 231
 453 0 243 35 228 14 232 1004 244 ?137 242 245 23 246 +0 0 137 35 40 13 40 3 0 0
 0 0 0 0 27 33 14 33 1452 247 ?230 0 248 23 249 +0 0 230 0 40 81 1 247 2003 233
 33 250 0 0 235 251 15 248 52 0 219 33 252 50 255 249 64 0 33 253 254 0 +-944256
48294133e-32 .012 0 0 1 0 0 0 1 50 253 35 0 242 246 249 0 +897381019010443e-33 .
002 0 0 1 0 0 0 1 50 254 118 0 255 249 256 0 +-.0160160997291874 .002 -.00891428
571428571 277276751118604e-30 0 1 1 0 -277276751118604e-30 14 255 107 257 1e-8 2
42 258 259 23 254 -0 0 258 242 40 51 256 147 0 258 254 260 0 +0 .002 0 0 1 0 .01
83297555993307 0 0 1 14 258 136 261 1e-8 255 262 263 23 256 -0 0 262 255 40 50 2
60 177 0 262 256 264 0 +.0169048097709622 .002 -.00708571428571429 -131349957753
706e-30 0 -1 -1 0 131349957753706e-30 14 262 166 265 1e-8 258 266 267 23 260 -0
 0 266 258 40 51 264 206 0 266 260 240 0 +0 .002 0 0 1 0 .0183297555993307 0 0 1
 14 266 195 268 1e-8 262 241 269 23 264 -0 0 241 262 40 50 240 243 0 241 264 270
 0 +897381019010443e-33 0 0 0 1 0 0 0 1 14 241 227 271 1e-8 266 272 46 23 240 -2
30 230 272 266 40 50 270 279 0 272 240 273 0 +897381019010443e-33 .002 0 0 1 0 0
 0 1 14 272 263 274 1e-8 241 226 189 23 270 +0 0 226 241 40 50 273 319 0 226 270
 275 0 +897381019010443e-33 .002 0 0 1 0 0 0 1 14 226 310 276 1e-8 272 277 224 2
3 273 +0 0 277 272 40 50 275 376 0 277 273 278 0 +.00634707736462884 0 -.0104192
685212483 1 0 -133226762955019e-29 -133226762955019e-29 0 -1 14 277 365 279 1e-8
 226 280 281 23 275 -0 0 280 226 40 50 278 397 0 280 275 282 0 +.006347077364628
84 0 -.0154192685212483 0 0 -1 -1 0 0 14 280 386 283 1e-8 277 238 284 23 278 -0
 0 238 277 40 50 282 418 0 238 278 36 0 +-.00634707736462883 0 -.015419268521248
3 -1 0 177635683940025e-29 177635683940025e-29 0 1 14 238 407 285 1e-8 280 126 1
83 23 282 -0 0 126 280 40 50 36 439 0 126 282 24 0 +-.00634707736462882 0 -.0104
192685212483 139935023425079e-29 0 1 1 0 -139935023425079e-29 81 1 285 2007 233
 238 286 0 236 283 287 15 183 409 0 100 238 0 17 100 0 183 105 288 98 93 178 0 4
8 -17 288 0 183 100 96 87 191 187 0 198 -17 93 0 121 289 49 87 100 178 0 288 +17
 48 0 46 44 290 98 105 181 0 49 -15 46 1269 0 44 241 291 17 290 0 46 48 292 101
 107 175 0 0 -17 49 0 121 93 51 98 44 50 0 0 +17 292 0 46 290 103 67 173 171 0 0
 -17 107 0 284 90 184 67 290 175 0 293 +15 284 388 0 184 280 0 17 90 0 284 192 1
07 88 293 167 0 294 +17 184 0 284 107 192 101 96 168 0 290 -17 293 0 281 173 294
 67 90 167 0 292 -15 281 367 0 293 277 0 17 173 0 281 86 293 97 292 171 0 0 +17
 294 0 281 293 86 88 190 199 0 186 -17 86 0 281 294 173 84 125 165 0 289 -17 190
 0 189 198 186 84 294 199 0 0 +15 189 265 0 191 272 295 17 198 0 189 191 190 87
 289 193 0 0 +17 191 0 189 186 198 94 288 187 0 0 +17 289 0 121 125 93 84 198 19
3 0 190 -17 125 0 121 41 289 97 86 165 0 173 +17 41 0 121 122 125 108 103 28 0 1
29 +17 103 0 46 292 110 97 41 28 0 125 -17 129 0 296 297 131 108 122 130 0 0 +15
 296 1355 0 297 298 0 17 297 0 296 299 129 52 110 158 0 300 +17 131 0 296 129 29
9 117 116 133 0 0 -17 299 0 296 131 297 114 300 152 0 139 -17 116 0 132 113 119
 114 131 133 0 299 +16 133 1285 0 ?116 140 123 301 0 0 13 16 140 1288 0 ?113 302
 133 303 0 0 13 31 301 1385 0 133 135 303 0 +.00692285472670903 -.0098 -.0084192
685212483 0 -1 0 0 0 1 .002 30 135 1386 0 123 145 301 0 +-.00634707736462882 -.0
098 -.0104192685212483 1 0 3012837235749415e-30 31 303 1384 0 140 301 304 0 +0 -
.0098 0 0 -1 0 0 0 -1 .0129 31 304 1383 0 55 303 305 0 +-.00692285472670902 0 -.
0084192685212483 0 -1 0 0 0 1 .002 16 55 1294 0 ?54 50 306 304 0 0 13 31 305 138
2 0 158 304 307 0 +.00692285472670903 0 -.0084192685212483 0 -1 0 0 0 1 .002 16
 158 1314 0 ?297 144 50 305 0 0 13 31 307 1381 0 144 305 308 0 +0 0 0 0 -1 0 0 0
 -1 .0129 16 144 1318 0 ?56 134 158 307 0 0 13 30 308 1380 0 302 307 155 0 +-.00
819310330041711 -.0098 -.00996408843340395 0 1 0 16 302 1297 0 ?143 152 140 308
 0 0 13 30 155 1379 0 152 308 153 0 +.00819310330041711 -.0098 -.009964088433403
95 0 1 0 16 152 1321 0 ?300 130 302 155 0 0 13 17 300 0 309 56 139 52 299 152 0
 0 +15 309 1359 0 56 310 0 17 56 0 309 141 300 45 53 144 0 143 +17 139 0 309 300
 141 114 113 140 0 0 -17 141 0 309 139 56 91 143 302 0 136 -17 143 0 142 54 136
 45 141 302 0 0 +17 53 0 46 110 47 52 56 144 0 297 -17 110 0 46 103 53 108 297 1
58 0 41 -14 310 1356 311 ?312 298 309 23 313 -0 0 312 298 40 81 1 311 2022 233 3
10 314 0 315 316 317 14 312 1360 316 ?318 310 319 23 320 +0 0 318 310 40 14 298
 1352 315 ?310 146 296 23 321 -0 0 310 146 40 51 313 1370 0 310 322 321 0 -0 -.0
098 0 0 1 0 .0129 0 0 1 50 322 1372 0 137 320 313 0 +-.00692285472670902 -.0098
 -.0084192685212483 0 1 0 0 0 1 51 321 1369 0 298 313 323 0 -.00692285472670903
 -.0098 -.0084192685212483 0 1 0 .002 0 0 1 51 323 1367 0 146 321 246 0 --.00692
285472670902 -.0098 -.0084192685212483 0 1 0 .002 0 0 1 14 146 1343 324 ?298 137
 142 23 323 -0 0 298 137 40 51 246 1028 0 232 323 253 0 +0 .0656396103067893 0 0
 -1 0 .0225 0 0 -1 81 1 324 2020 233 146 325 0 326 315 327 14 137 1335 326 ?146
 232 132 23 322 -0 0 146 232 40 81 1 326 2019 233 137 328 0 244 324 329 80 255 1
 233 0 330 8001 0 0 0 0 3 5 0 0 0 FFFFTFTFFFFFFF2 81 1 328 1995 331 137 0 326 32
5 332 333 81 1 244 2018 233 232 334 0 335 326 336 83 255 3 329 .745098039215686
 .745098039215686 .745098039215686 81 1 334 1960 331 232 0 244 337 250 338 81 1
 335 2017 233 242 332 0 257 244 339 83 3 336 .745098039215686 .745098039215686 .
745098039215686 14 242 28 335 1e-8 232 255 340 23 253 +0 0 255 230 40 81 1 332 1
997 331 242 0 335 328 341 342 81 1 257 2016 233 255 343 0 261 335 344 83 3 339 .
749019607843137 .749019607843137 .749019607843137 81 1 343 1965 331 255 0 257 25
0 345 346 81 1 261 2015 233 258 345 0 265 257 347 83 3 344 .749019607843137 .749
019607843137 .749019607843137 81 1 345 1967 331 258 0 261 343 348 349 81 1 265 2
014 233 262 348 0 268 261 350 83 3 347 .749019607843137 .749019607843137 .749019
607843137 81 1 348 1969 331 262 0 265 345 351 352 81 1 268 2013 233 266 351 0 27
1 265 353 83 3 350 .749019607843137 .749019607843137 .749019607843137 81 1 351 1
971 331 266 0 268 348 354 355 81 1 271 2012 233 241 354 0 274 268 356 83 3 353 .
749019607843137 .749019607843137 .749019607843137 81 1 354 1972 331 241 0 271 35
1 357 358 81 1 274 2011 233 272 357 0 276 271 359 83 3 356 .749019607843137 .749
019607843137 .749019607843137 81 1 357 1978 331 272 0 274 354 360 361 81 1 276 2
010 233 226 360 0 279 274 362 83 3 359 .749019607843137 .749019607843137 .749019
607843137 81 1 360 1980 331 226 0 276 357 363 364 81 1 279 2009 233 277 363 0 28
3 276 365 83 3 362 .749019607843137 .749019607843137 .749019607843137 81 1 363 1
981 331 277 0 279 360 366 367 81 1 283 2008 233 280 366 0 285 279 368 83 3 365 .
749019607843137 .749019607843137 .749019607843137 81 1 366 1984 331 280 0 283 36
3 286 369 83 3 368 .749019607843137 .749019607843137 .749019607843137 80 1 331 3
70 371 9000 1 1 1 1 1 1 1 1 0 FFFFTFTFFFFFFF1 81 1 286 1985 331 238 0 285 366 31
4 372 82 255 1 369 247791759 81 1 314 1987 331 310 0 311 286 373 374 82 1 372 -1
580334945 81 1 373 1989 331 312 0 316 314 375 376 82 1 374 -1785134945 81 1 316
 2023 233 312 373 0 311 377 378 81 1 375 1991 331 298 0 315 373 325 379 82 1 376
 -1797193569 81 1 315 2021 233 298 375 0 324 311 380 81 1 325 1993 331 146 0 324
 375 328 381 82 1 379 -1784872801 82 1 381 -1784086369 83 3 380 .745098039215686
 .745098039215686 .745098039215686 81 1 377 2024 233 318 341 0 316 0 382 83 3 37
8 .745098039215686 .745098039215686 .745098039215686 14 318 1545 377 ?0 312 383
 23 384 +0 0 0 312 40 81 1 341 2001 331 318 0 377 332 0 385 83 3 382 .7450980392
15686 .745098039215686 .745098039215686 82 1 385 -1071972187 15 383 1548 0 386 3
18 387 51 384 1558 0 318 0 320 0 +0 .002 0 0 1 0 .0199 0 0 1 51 320 1373 0 312 3
84 322 0 -0 -.0098 0 0 1 0 .0089 0 0 1 17 386 0 383 386 386 0 388 389 0 0 +15 38
7 1549 0 390 318 0 17 390 0 387 390 390 0 391 392 0 0 -17 391 0 393 391 391 0 39
0 392 0 0 +16 392 1498 0 ?391 389 0 394 0 0 13 16 389 1495 0 ?386 395 392 396 0
 0 13 31 394 1574 0 392 396 397 0 +0 .012 0 0 1 0 0 0 1 .0199 31 396 1575 0 389
 0 394 0 +0 .002 0 0 1 0 0 0 1 .0199 31 397 1389 0 306 394 398 0 +0 -.0098 0 0 -
1 0 0 0 -1 .0089 16 306 1322 0 ?399 55 395 397 0 0 13 31 398 1388 0 395 397 145
 0 +0 0 0 0 -1 0 0 0 -1 .0089 16 395 1291 0 ?400 306 389 398 0 0 13 31 145 1387
 0 134 398 135 0 +-.00692285472670902 -.0098 -.0084192685212483 0 -1 0 0 0 1 .00
2 17 400 0 401 400 400 0 402 395 0 0 +15 401 1249 0 400 230 0 17 402 0 403 402 4
02 0 400 395 0 0 -15 403 1364 0 402 312 0 17 399 0 319 399 399 0 404 306 0 0 +15
 319 1363 0 399 312 403 17 404 0 138 404 404 0 399 306 0 0 -15 138 1338 0 404 13
7 0 15 393 1449 0 391 33 0 17 388 0 405 388 388 0 386 389 0 0 -15 405 1540 0 388
 242 0 79 255 14 371 SWEntUnchanged82 1 367 -1580597089 82 1 364 235733135 82 1
 361 247398543 82 1 358 -1581121377 82 1 355 236650639 82 1 352 247070863 82 1 3
49 234946703 81 1 250 1962 331 33 0 247 334 343 406 82 1 346 246874255 82 1 406
 -1054343003 82 1 342 -1582235483 15 340 1022 0 407 242 405 17 407 0 340 407 407
 0 149 147 0 0 -17 149 0 408 149 149 0 407 147 0 0 +15 408 1008 0 149 232 0 81 1
 337 1955 331 230 0 235 409 334 410 82 1 338 -1542127468 81 1 235 2004 233 230 3
37 0 247 229 411 81 1 409 1951 331 126 0 236 234 337 412 82 1 410 -1778843489 81
 1 236 2006 233 126 409 0 229 285 413 81 1 234 1950 331 35 0 229 0 409 414 82 1
 412 -1580203873 82 1 414 242417807 83 3 413 .749019607843137 .749019607843137 .
749019607843137 83 3 411 .749019607843137 .749019607843137 .749019607843137 82 1
 333 -1780875105 79 15 330 SDL/TYSA_COLOUR83 3 327 .745098039215686 .74509803921
5686 .745098039215686 83 3 317 .745098039215686 .745098039215686 .74509803921568
6 15 295 266 0 70 272 0 17 70 0 295 204 204 68 73 210 0 415 +17 204 0 295 70 70
 63 416 202 0 417 +17 73 0 263 81 415 63 70 210 0 204 -17 415 0 263 73 83 68 418
 206 0 416 +15 263 138 0 81 258 0 17 83 0 263 415 81 77 216 214 0 418 -17 418 0
 259 419 416 77 415 206 0 420 -16 206 111 0 ?415 202 221 421 0 0 13 17 416 0 259
 418 417 68 204 202 0 0 -15 259 109 0 418 255 0 17 417 0 259 416 419 63 81 221 0
 0 -17 419 0 259 417 418 57 420 42 0 216 -17 81 0 263 83 73 57 417 221 0 419 +16
 221 113 0 ?81 206 210 422 0 0 13 30 422 128 0 221 423 421 0 +.0160160997291874
 .002 -.00891428571428572 0 1 0 30 423 65 0 217 424 422 0 +-94425648294133e-32 .
012 -.00708571428571428 1 0 0 30 421 132 0 206 422 425 0 --.0160160997291874 .00
2 -.00891428571428571 0 1 0 30 425 187 0 222 421 195 0 +-.0169048097709622 .002
 -.00708571428571429 0 1 0 16 222 172 0 ?76 211 174 425 0 0 13 30 195 191 0 211
 425 185 0 -.0169048097709622 .002 -.00708571428571429 0 1 0 16 211 170 0 ?426 2
07 222 195 0 0 13 17 426 0 269 66 79 60 427 211 0 428 +15 269 197 0 76 266 0 17
 66 0 269 76 426 64 62 174 0 209 -17 79 0 269 426 76 71 219 205 0 427 -17 427 0
 267 429 428 71 426 211 0 430 -17 428 0 267 427 431 60 209 207 0 0 -15 267 168 0
 427 262 0 17 431 0 267 428 429 64 76 222 0 0 -17 209 0 227 62 62 64 428 207 0 4
31 +15 227 313 0 62 226 0 17 62 0 227 209 209 60 66 174 0 426 +17 429 0 267 431
 427 74 430 217 0 219 -17 76 0 269 79 66 74 431 222 0 429 +17 430 0 248 219 219
 71 429 217 0 0 +16 217 56 0 ?430 214 205 423 0 0 13 17 219 0 248 430 430 74 79
 205 0 0 +30 424 67 0 42 151 423 0 --94425648294133e-32 .012 -.00891428571428572
 1 0 0 16 42 54 0 ?420 28 214 424 0 0 13 31 151 1030 0 147 156 424 0 -0 .002 0 0
 1 0 0 0 1 .0225 17 420 0 252 216 216 77 419 42 0 0 +15 252 51 0 216 33 393 17 2
16 0 252 420 420 57 83 214 0 0 +17 192 0 284 184 90 94 186 182 0 191 -17 96 0 18
3 288 105 94 184 168 0 192 +15 291 1017 0 432 241 0 17 432 0 291 432 432 0 433 1
50 0 0 +17 433 0 245 433 433 0 432 150 0 0 -16 150 1000 0 ?432 161 147 156 0 0 1
3 16 161 455 0 ?434 178 150 159 0 0 13 17 434 0 239 434 434 0 243 161 0 0 +15 23
9 495 0 434 230 401 17 243 0 231 243 243 0 434 161 0 0 -15 245 1007 0 433 232 40
8 83 3 287 .749019607843137 .749019607843137 .749019607843137 83 3 251 .74901960
7843137 .749019607843137 .749019607843137 83 3 237 .749019607843137 .74901960784
3137 .749019607843137 19 34 542 0 13 0 27 23 S0 141 38 37 38 38 25 74 4 CI16 ind
ex_map_offset0 0 1 dCCZ20 32 4 0 0 341 30 377 20 0 0 0 0 0 0 0 0 0 0 0 0 0 0 0 0
 81 2 30 1599 435 13 0 20 0 0 436 0 80 2 435 437 438 8004 0 0 0 0 3 5 0 0 0 FFTF
FFFFFFFFFT2 3 83 1 436 78e2 79 16 438 SDL/TYSA_DENSITY80 1 5 439 440 8017 0 0 0
 0 0 0 0 0 0 TTTTTTTTTTTTTF3 84 255 3 31 cap79 13 440 SDL/TYSA_NAME81 1 10 449 5
 7 441 0 0 0 442 70 11 0 4 T7 0 0 4 20 1 443 443 50 12 267 0 7 444 0 0 +89738101
9010443e-33 .01 0 0 1 0 0 0 1 13 14 139 0 7 0 445 0 0 446 0 50 15 119 0 445 447
 0 0 +897381019010443e-33 .0016 0 0 1 0 0 0 1 31 16 158 0 448 449 0 0 +0 .0016 0
 0 1 0 0 0 1 .02 19 17 5 0 7 446 0 450 V0 16 18 32 0 ?451 0 452 453 0 0 7 17 451
 0 454 451 451 0 455 18 0 0 +16 452 53 0 ?456 18 457 458 0 0 7 31 453 149 0 18 4
59 458 0 -0 0 0 0 1 0 0 0 1 .006 31 459 317 0 460 461 453 0 +0 .1216 0 0 1 0 0 0
 1 .0225 31 458 152 0 452 453 449 0 -0 .1216 0 0 1 0 0 0 1 .02 31 449 155 0 457
 458 16 0 -0 .0016 0 0 1 0 0 0 1 .006 16 457 75 0 ?462 452 448 449 0 0 7 17 462
 0 463 462 462 0 464 457 0 0 +16 448 95 0 ?465 457 466 16 0 0 7 17 465 0 467 465
 465 0 468 448 0 0 +16 466 289 0 ?469 448 460 461 0 0 7 17 469 0 470 469 469 0 4
71 466 0 0 +16 460 282 0 ?472 466 0 459 0 0 7 31 461 319 0 466 0 459 0 -0 0 0 0
 1 0 0 0 1 .0225 17 472 0 473 472 472 0 474 460 0 0 +15 473 298 0 472 475 0 17 4
74 0 476 474 474 0 472 460 0 0 -15 476 294 0 474 477 0 14 477 290 478 ?0 479 480
 14 481 +0 0 0 445 450 81 1 478 448 233 477 482 0 483 0 484 14 479 28 483 1e-8 4
77 475 485 14 486 -0 0 475 0 450 15 480 293 0 471 477 476 51 481 312 0 477 0 486
 0 +0 -.0636396103067893 0 0 1 0 .0225 0 0 1 14 445 112 487 1e-8 488 0 463 14 15
 +0 0 477 488 450 13 450 3 0 0 0 0 0 0 17 479 81 1 487 443 233 445 489 0 0 490 4
91 14 488 91 490 1e-8 492 445 493 14 447 -0 0 445 492 450 15 463 114 0 462 445 4
67 15 467 115 0 465 445 0 81 1 490 444 233 488 494 0 487 495 496 14 492 70 495 1
e-8 475 488 454 14 497 -0 0 488 475 450 15 493 93 0 468 488 498 51 447 98 0 488
 497 15 0 +0 .0016 0 0 1 0 .02 0 0 1 51 497 77 0 492 499 447 0 +0 0 0 0 1 0 .006
 0 0 1 50 499 56 0 475 486 497 0 +-897381019010443e-33 .1216 0 0 1 0 0 0 1 14 47
5 49 500 1e-8 479 492 501 14 499 +0 0 492 479 450 50 486 35 0 479 481 499 0 +897
381019010443e-33 0 0 0 1 0 0 0 1 81 1 500 446 233 475 502 0 495 483 503 15 501 5
1 0 456 475 473 17 456 0 501 456 456 0 504 452 0 0 +17 504 0 498 504 504 0 456 4
52 0 0 -15 498 94 0 504 488 0 81 1 502 440 331 475 0 500 505 0 506 81 1 495 445
 233 492 505 0 490 500 507 81 1 483 447 233 479 508 0 500 478 509 83 3 503 .7490
19607843137 .749019607843137 .749019607843137 81 1 508 431 331 479 0 483 482 489
 510 83 3 509 .749019607843137 .749019607843137 .749019607843137 81 1 482 429 33
1 477 0 478 0 508 511 81 1 489 435 331 445 0 487 508 494 512 82 1 510 246349973
 81 1 494 437 331 488 0 490 489 505 513 82 1 512 1833042063 81 1 505 439 331 492
 0 495 494 502 514 82 1 513 1832779919 82 1 514 1831927951 82 1 511 262799509 83
 3 507 .749019607843137 .749019607843137 .749019607843137 82 1 506 245891221 17
 468 0 493 468 468 0 465 448 0 0 -15 454 72 0 451 492 515 15 515 73 0 464 492 0
 17 464 0 515 464 464 0 462 457 0 0 -83 3 496 .749019607843137 .749019607843137
 .749019607843137 83 3 491 .749019607843137 .749019607843137 .749019607843137 17
 471 0 480 471 471 0 469 466 0 0 -15 485 30 0 455 479 470 17 455 0 485 455 455 0
 451 18 0 0 -15 470 308 0 469 479 0 83 3 484 .745098039215686 .745098039215686 .
745098039215686 19 446 140 0 7 0 17 14 S0 50 444 266 0 7 516 12 0 +8973810190104
43e-33 .01 0 0 1 0 0 0 1 50 516 265 0 7 517 444 0 +897381019010443e-33 .01 0 0 1
 0 0 0 1 50 517 264 0 7 518 516 0 +897381019010443e-33 .01 0 0 1 0 0 0 1 50 518
 263 0 7 519 517 0 +897381019010443e-33 .01 0 0 1 0 0 0 1 50 519 262 0 7 520 518
 0 +897381019010443e-33 .01 0 0 1 0 0 0 1 50 520 258 0 7 521 519 0 +897381019010
443e-33 .01 0 0 1 0 0 0 1 50 521 257 0 7 522 520 0 +897381019010443e-33 .01 0 0
 1 0 0 0 1 50 522 256 0 7 0 521 0 +897381019010443e-33 .01 0 0 1 0 0 0 1 74 20 4
43 4 0 0 502 441 478 10 0 0 0 0 0 0 0 0 0 0 0 0 0 0 0 0 81 2 441 340 435 7 0 10
 0 0 523 0 83 1 523 78e2 84 4 442 main74 20 6 1 0 0 2 0 0 0 0 0 0 0 0 0 0 0 0 0
 0 0 0 0 0 0 1 0 
